# xmcd
#
# Track frame offsets: 
#        183
#        14583
#        28220
#        40808
#        53970
#        65745
#        79708
#        93758
#        108470
#        116058
#        126808
#        140808
#        154945
#        175183
#        187883
#        198970
#        212333
#        223495
#        236770
#        248383
#        258420
#        270508
#
# Disc length: 3786 seconds
#
# Revision: 1
# Processed by: cddbd v1.5.1PL2 Copyright (c) Steve Scherf et al.
# Submitted via: ExactAudioCopy v0.95b3
#
DISCID=400ec816
DTITLE=Lowell Fulson - Reconsider Baby
DYEAR=1999
DGENRE=Blues
TTITLE0=Reconsider Baby
TTITLE1=Loving You
TTITLE2=It's A Long time
TTITLE3=Do Me Right
TTITLE4=Took A Long Time
TTITLE5=Tollin' Bells
TTITLE6=Someday Baby
TTITLE7=I Want To Make Love To You
TTITLE8=Rock This Morning
TTITLE9=Coming Home Someday
TTITLE10=Have You Changed Your Mind?
TTITLE11=Worry Worry
TTITLE12=I Want To Know
TTITLE13=I'm Glad You Reconsidered
TTITLE14=Blue Shadows
TTITLE15=Hung Down Head
TTITLE16=So Many Tears
TTITLE17=Pay Day Blues
TTITLE18=Why Don't You Write Me?
TTITLE19=Shed No Tears
TTITLE20=Trouble With The Blues
TTITLE21=Blue Soul
EXTD=
EXTT0=
EXTT1=
EXTT2=
EXTT3=
EXTT4=
EXTT5=
EXTT6=
EXTT7=
EXTT8=
EXTT9=
EXTT10=
EXTT11=
EXTT12=
EXTT13=
EXTT14=
EXTT15=
EXTT16=
EXTT17=
EXTT18=
EXTT19=
EXTT20=
EXTT21=
PLAYORDER=
